<?xml version="1.0" encoding="UTF-8" standalone="no"?><!DOCTYPE svg PUBLIC "-//W3C//DTD SVG 1.1//EN" "http://www.w3.org/Graphics/SVG/1.1/DTD/svg11.dtd"><svg width="100%" height="100%" viewBox="0 0 512 512" version="1.1" xmlns="http://www.w3.org/2000/svg" xmlns:xlink="http://www.w3.org/1999/xlink" xml:space="preserve" style="fill-rule:evenodd;clip-rule:evenodd;stroke-linejoin:round;stroke-miterlimit:1.41421;"><path id="a" d="M361.152,490.456c34.525,0 66.989,-13.45 91.404,-37.866c50.399,-50.399 50.399,-132.404 0,-182.809c-25.2,-25.194 -58.31,-37.796 -91.404,-37.796c-33.106,0 -66.2,12.597 -91.404,37.796c-24.416,24.416 -37.866,56.88 -37.866,91.404c0,34.53 13.45,66.988 37.866,91.404c24.416,24.417 56.874,37.867 91.404,37.867Z" style="fill:url(#_Linear1);fill-rule:nonzero;"/><g><path d="M361.152,512c40.279,0 78.149,-15.69 106.636,-44.177c58.799,-58.799 58.799,-154.469 0,-213.273c-58.804,-58.81 -154.479,-58.788 -213.273,0c-28.487,28.487 -44.177,66.358 -44.177,106.636c0,40.285 15.69,78.156 44.177,106.637c28.482,28.487 66.352,44.177 106.637,44.177Zm-91.404,-242.219c25.205,-25.199 58.299,-37.796 91.404,-37.796c33.094,0 66.205,12.602 91.404,37.796c50.399,50.405 50.399,132.41 0,182.809c-24.416,24.416 -56.88,37.866 -91.404,37.866c-34.531,0 -66.989,-13.45 -91.404,-37.866c-24.416,-24.416 -37.866,-56.874 -37.866,-91.404c0,-34.525 13.45,-66.989 37.866,-91.405Z" style="fill:#3f414f;fill-rule:nonzero;"/><path d="M225.164,493.854c4.208,4.208 11.025,4.208 15.232,0c4.207,-4.208 4.208,-11.025 0,-15.232c-31.538,-31.538 -48.906,-73.468 -48.906,-118.066c0,-44.598 17.368,-86.523 48.906,-118.06c65.11,-65.101 171.027,-65.09 236.127,0c4.209,4.208 11.025,4.208 15.232,0c4.207,-4.207 4.208,-11.025 0,-15.232c-36.756,-36.755 -85.02,-55.127 -133.299,-55.127c-48.264,0 -96.548,18.383 -133.293,55.127c-35.607,35.602 -55.216,82.939 -55.216,133.291c0,50.352 19.609,97.695 55.217,133.299Z" style="fill:#3f414f;fill-rule:nonzero;"/><path d="M302.332,345.309c20.592,0 37.31,16.718 37.31,37.309c0,20.592 -16.718,37.31 -37.31,37.31c-20.591,0 -37.309,-16.718 -37.309,-37.31c0,-20.591 16.718,-37.309 37.309,-37.309Zm0,7.089c16.679,0 30.221,13.541 30.221,30.22c0,16.68 -13.542,30.221 -30.221,30.221c-16.679,0 -30.22,-13.541 -30.22,-30.221c0,-16.679 13.541,-30.22 30.22,-30.22Z" style="fill:#3f414f;"/><path d="M361.119,262.689c10.296,0 18.654,8.359 18.654,18.655c0,10.295 -8.358,18.654 -18.654,18.654c-10.296,0 -18.655,-8.359 -18.655,-18.654c0,-10.296 8.359,-18.655 18.655,-18.655Zm0,6.156c6.898,0 12.498,5.6 12.498,12.499c0,6.898 -5.6,12.498 -12.498,12.498c-6.898,0 -12.499,-5.6 -12.499,-12.498c0,-6.899 5.601,-12.499 12.499,-12.499Z" style="fill:#3f414f;"/><path d="M427.207,355.335c15.058,0 27.283,12.226 27.283,27.283c0,15.058 -12.225,27.283 -27.283,27.283c-15.058,0 -27.283,-12.225 -27.283,-27.283c0,-15.057 12.225,-27.283 27.283,-27.283Zm0,7.094c11.143,0 20.19,9.047 20.19,20.189c0,11.143 -9.047,20.19 -20.19,20.19c-11.143,0 -20.189,-9.047 -20.189,-20.19c0,-11.142 9.046,-20.189 20.189,-20.189Z" style="fill:#3f414f;"/><path d="M334.49,182.191c2.104,2.104 4.86,3.156 7.616,3.156c2.756,0 5.512,-1.052 7.616,-3.156c4.207,-4.209 4.207,-11.025 0,-15.232l-159.954,-159.956c-4.209,-4.208 -11.025,-4.208 -15.232,0c-4.207,4.209 -4.207,11.025 0,15.232l159.954,159.956Z" style="fill:#3f414f;fill-rule:nonzero;"/><path d="M178.343,86.978c-4.207,4.208 -4.207,11.024 0,15.232l95.213,95.212c2.104,2.105 4.86,3.157 7.616,3.157c2.755,0 5.512,-1.052 7.615,-3.157c4.209,-4.208 4.209,-11.024 0,-15.231l-95.211,-95.213c-4.209,-4.207 -11.025,-4.207 -15.233,0Z" style="fill:#3f414f;fill-rule:nonzero;"/><path d="M212.621,227.893c2.104,2.105 4.86,3.157 7.615,3.157c2.756,0 5.513,-1.052 7.616,-3.157c4.209,-4.207 4.209,-11.024 0,-15.231l-209.464,-209.467c-4.208,-4.208 -11.024,-4.208 -15.232,0c-4.207,4.209 -4.208,11.025 0,15.232l209.465,209.466Z" style="fill:#3f414f;fill-rule:nonzero;"/><path d="M94.555,170.777c-4.209,4.207 -4.209,11.024 0,15.231l72.364,72.359c2.104,2.105 4.86,3.157 7.616,3.157c2.756,0 5.513,-1.052 7.616,-3.157c4.208,-4.207 4.208,-11.024 0,-15.231l-72.363,-72.359c-4.209,-4.208 -11.025,-4.208 -15.233,0Z" style="fill:#3f414f;fill-rule:nonzero;"/><path d="M52.661,139.645c2.756,0 5.513,-1.052 7.616,-3.157c4.208,-4.202 4.208,-11.024 0,-15.231l-41.889,-41.895c-4.208,-4.208 -11.024,-4.208 -15.232,0c-4.208,4.202 -4.208,11.025 0,15.232l41.889,41.894c2.104,2.105 4.859,3.157 7.616,3.157Z" style="fill:#3f414f;fill-rule:nonzero;"/><path d="M29.813,166.958c-4.209,-4.207 -11.025,-4.207 -15.232,0c-4.207,4.208 -4.208,11.024 0,15.232l159.955,159.955c2.104,2.104 4.86,3.156 7.616,3.156c2.756,0 5.513,-1.052 7.616,-3.156c4.208,-4.208 4.208,-11.025 0,-15.232l-159.955,-159.955Z" style="fill:#3f414f;fill-rule:nonzero;"/></g><defs><linearGradient id="_Linear1" x1="0" y1="0" x2="1" y2="0" gradientUnits="userSpaceOnUse" gradientTransform="matrix(144.667,176.178,-176.178,144.667,291.661,265.697)"><stop offset="0" style="stop-color:#e7c798;stop-opacity:1"/><stop offset="0.5" style="stop-color:#d69c4a;stop-opacity:0.247059"/><stop offset="1" style="stop-color:#d08e30;stop-opacity:0"/></linearGradient></defs></svg>