<?xml version="1.0" encoding="UTF-8" standalone="no"?><!DOCTYPE svg PUBLIC "-//W3C//DTD SVG 1.1//EN" "http://www.w3.org/Graphics/SVG/1.1/DTD/svg11.dtd"><svg width="100%" height="100%" viewBox="0 0 6501 2152" version="1.1" xmlns="http://www.w3.org/2000/svg" xmlns:xlink="http://www.w3.org/1999/xlink" xml:space="preserve" style="fill-rule:evenodd;clip-rule:evenodd;stroke-linejoin:round;stroke-miterlimit:1.41421;"><g id="Comet"><path id="a" d="M1666.8,1328.9c67.575,-67.574 104.789,-157.437 104.787,-253.01c0,-197.286 -160.502,-357.789 -357.799,-357.799c-98.633,0.01 -188.102,40.148 -252.876,104.921c-64.795,64.795 -104.913,154.225 -104.921,252.876c0,95.575 37.214,185.438 104.787,253.01c67.583,67.583 157.435,104.787 253.01,104.787c95.577,0.002 185.429,-37.201 253.012,-104.785Z" style="fill:url(#_Linear1);fill-rule:nonzero;"/><g><path d="M1708.97,1371.07c78.835,-78.835 122.248,-183.666 122.248,-295.177c0,-230.166 -187.248,-417.415 -417.425,-417.425c-230.197,-0.011 -417.415,187.291 -417.425,417.425c0,111.511 43.413,216.342 122.248,295.177c78.845,78.846 183.677,122.259 295.177,122.248c111.5,0.011 216.332,-43.402 295.177,-122.248l0,0Zm-652.976,-295.179c0.01,-98.654 40.128,-188.083 104.921,-252.876c64.774,-64.773 154.245,-104.913 252.876,-104.921c197.297,0.01 357.799,160.513 357.799,357.799c0,95.576 -37.214,185.438 -104.787,253.01c-67.585,67.586 -157.437,104.79 -253.01,104.787c-95.575,0 -185.427,-37.203 -253.01,-104.787c-67.575,-67.574 -104.789,-157.437 -104.789,-253.012Z" style="fill:#7f6e54;fill-rule:nonzero;"/><path d="M1407.29,1601.71c16.471,0.003 29.814,-13.34 29.812,-29.811c0,-16.47 -13.341,-29.814 -29.812,-29.812c-123.454,0 -239.514,-48.074 -326.803,-135.362c-87.288,-87.288 -135.353,-203.34 -135.351,-326.792c0.019,-254.853 207.343,-462.135 462.156,-462.156c16.473,0 29.814,-13.34 29.812,-29.811c0,-16.47 -13.341,-29.814 -29.812,-29.812c-143.878,0 -274.3,58.506 -368.793,152.999c-94.464,94.464 -152.989,224.946 -152.989,368.782c-0.012,139.373 54.26,270.402 152.81,368.953c98.551,98.55 229.591,152.833 368.97,152.822l0,0Z" style="fill:#7f6e54;fill-rule:nonzero;"/><path d="M1267.59,1159.94c40.303,-40.303 105.744,-40.303 146.046,0c40.303,40.303 40.303,105.744 0,146.046c-40.302,40.303 -105.743,40.303 -146.046,0c-40.303,-40.302 -40.303,-105.743 0,-146.046Zm13.874,13.874c32.645,-32.645 85.653,-32.645 118.298,0c32.645,32.645 32.645,85.653 0,118.298c-32.645,32.645 -85.653,32.645 -118.298,0c-32.645,-32.645 -32.645,-85.653 0,-118.298Z" style="fill:#7f6e54;"/><path d="M1220.94,883.172c20.151,-20.151 52.872,-20.151 73.023,0c20.151,20.152 20.151,52.872 0,73.023c-20.151,20.152 -52.872,20.152 -73.023,0c-20.151,-20.151 -20.151,-52.871 0,-73.023Zm12.049,12.049c13.501,-13.501 35.424,-13.501 48.925,0c13.502,13.501 13.502,35.424 0,48.926c-13.501,13.501 -35.424,13.501 -48.925,0c-13.502,-13.502 -13.502,-35.425 0,-48.926Z" style="fill:#7f6e54;"/><path d="M1531.62,935.152c29.472,-29.471 77.327,-29.471 106.799,0c29.472,29.472 29.472,77.327 0,106.799c-29.472,29.472 -77.327,29.472 -106.799,0c-29.471,-29.472 -29.471,-77.327 0,-106.799Zm13.884,13.884c21.809,-21.809 57.222,-21.809 79.031,0c21.809,21.809 21.809,57.222 0,79.031c-21.809,21.809 -57.222,21.809 -79.031,0c-21.809,-21.809 -21.809,-57.222 0,-79.031Z" style="fill:#7f6e54;"/><path d="M1031.27,777.738c8.236,0 15.689,-3.335 21.083,-8.729c5.394,-5.394 8.731,-12.849 8.729,-21.083c-0.002,-16.472 -13.343,-29.812 -29.812,-29.812l-626.138,-0.004c-16.474,0 -29.814,13.34 -29.812,29.812c0.002,16.471 13.343,29.811 29.812,29.811l626.138,0.005Z" style="fill:#7f6e54;fill-rule:nonzero;"/><path d="M539.3,897c0.002,16.471 13.343,29.812 29.812,29.812l372.707,0c8.237,0 15.69,-3.335 21.084,-8.729c5.394,-5.393 8.73,-12.848 8.728,-21.083c0,-16.473 -13.34,-29.814 -29.812,-29.812l-372.705,-0.002c-16.471,0.002 -29.812,13.343 -29.814,29.814l0,0Z" style="fill:#7f6e54;fill-rule:nonzero;"/><path d="M882.193,1105.71c8.237,0 15.69,-3.335 21.084,-8.729c5.394,-5.394 8.73,-12.849 8.728,-21.083c0.002,-16.472 -13.34,-29.814 -29.812,-29.812l-819.944,-0.004c-16.474,0 -29.814,13.34 -29.812,29.812c0.002,16.471 13.341,29.814 29.812,29.811l819.944,0.005Z" style="fill:#7f6e54;fill-rule:nonzero;"/><path d="M519.321,1225.01c-0.002,16.472 13.341,29.814 29.812,29.812l283.257,-0.01c8.237,0 15.69,-3.335 21.084,-8.729c5.393,-5.393 8.73,-12.849 8.728,-21.083c0.002,-16.471 -13.341,-29.814 -29.812,-29.812l-283.255,0.008c-16.471,0.002 -29.812,13.343 -29.814,29.814Z" style="fill:#7f6e54;fill-rule:nonzero;"/><path d="M376.393,1246.07c5.394,-5.394 8.73,-12.849 8.728,-21.084c0.013,-16.46 -13.34,-29.814 -29.812,-29.812l-163.984,-0.01c-16.473,0 -29.814,13.341 -29.812,29.812c-0.012,16.461 13.341,29.814 29.812,29.812l163.984,0.01c8.235,0.002 15.688,-3.332 21.084,-8.728l0,0Z" style="fill:#7f6e54;fill-rule:nonzero;"/><path d="M385.132,1344.25c-16.471,0.002 -29.812,13.342 -29.812,29.811c0.002,16.472 13.341,29.814 29.812,29.812l626.138,0c8.236,0 15.689,-3.334 21.083,-8.728c5.394,-5.394 8.731,-12.849 8.729,-21.084c0.002,-16.471 -13.341,-29.813 -29.812,-29.811l-626.138,0l0,0Z" style="fill:#7f6e54;fill-rule:nonzero;"/></g></g><g><path d="M1808.84,635.681l-32.063,32.063c-49.552,-46.637 -106.878,-84.287 -171.976,-112.95c-65.098,-28.662 -134.082,-42.994 -206.953,-42.994c-78.701,0 -152.301,15.079 -220.8,45.237c-68.498,30.158 -128.252,71.019 -179.262,122.583c-51.01,51.564 -91.089,111.398 -120.237,179.502c-29.149,68.104 -43.723,140.094 -43.723,215.971c0,75.877 14.574,147.868 43.723,215.972c29.148,68.104 69.227,128.181 120.237,180.23c51.01,52.05 110.764,93.154 179.262,123.312c68.499,30.158 142.099,45.237 220.8,45.237c70.927,0 139.183,-13.603 204.767,-40.808c65.584,-27.205 123.152,-65.584 172.704,-115.136l33.521,32.063c-55.382,52.467 -118.537,93.032 -189.465,121.694c-70.927,28.663 -144.77,42.994 -221.527,42.994c-84.531,0 -163.96,-16.031 -238.289,-48.095c-74.328,-32.063 -139.183,-75.543 -194.565,-130.439c-55.382,-54.896 -99.105,-119.022 -131.168,-192.379c-32.063,-73.357 -48.095,-151.815 -48.095,-235.373c0,-82.588 16.032,-160.56 48.095,-233.916c32.063,-73.357 75.786,-137.484 131.168,-192.38c55.382,-54.896 120.237,-98.133 194.565,-129.71c74.329,-31.578 153.758,-47.366 238.289,-47.366c82.587,0 157.887,14.331 225.9,42.994c68.013,28.662 129.71,69.227 185.092,121.694Z" style="fill:#e7c798;fill-rule:nonzero;"/><path d="M2907.74,1196.79c0,67.041 -12.65,129.953 -37.95,188.736c-25.3,58.782 -59.845,110.035 -103.636,153.758c-43.791,43.722 -94.877,78.214 -153.257,103.476c-58.38,25.262 -121.144,37.893 -188.292,37.893c-67.148,0 -130.154,-12.631 -189.021,-37.893c-58.866,-25.262 -110.194,-59.754 -153.985,-103.476c-43.791,-43.723 -78.336,-94.976 -103.636,-153.758c-25.3,-58.783 -37.95,-121.695 -37.95,-188.736c0,-67.041 12.65,-129.953 37.95,-188.736c25.3,-58.783 59.845,-110.035 103.636,-153.758c43.791,-43.722 95.119,-78.215 153.985,-103.477c58.867,-25.262 121.873,-37.893 189.021,-37.893c67.148,0 129.912,12.631 188.292,37.893c58.38,25.262 109.466,59.755 153.257,103.477c43.791,43.723 78.336,94.975 103.636,153.758c25.3,58.783 37.95,121.695 37.95,188.736Zm-43.723,0c0,-59.269 -11.64,-116.108 -34.921,-170.518c-23.281,-54.411 -54.805,-102.02 -94.573,-142.827c-39.768,-40.808 -86.329,-73.357 -139.685,-97.648c-53.355,-24.29 -110.099,-36.435 -170.233,-36.435c-60.134,0 -117.121,12.145 -170.962,36.435c-53.841,24.291 -100.646,56.84 -140.414,97.648c-39.767,40.807 -71.292,88.416 -94.572,142.827c-23.281,54.41 -34.922,111.249 -34.922,170.518c0,59.268 11.641,115.865 34.922,169.789c23.28,53.925 54.805,101.534 94.572,142.827c39.768,41.294 86.33,74.086 139.685,98.376c53.355,24.291 110.586,36.436 171.691,36.436c60.134,0 116.878,-12.145 170.233,-36.436c53.356,-24.29 99.917,-57.082 139.685,-98.376c39.768,-41.293 71.292,-88.902 94.573,-142.827c23.281,-53.924 34.921,-110.521 34.921,-169.789Z" style="fill:#e7c798;fill-rule:nonzero;"/><path d="M4608.55,1123.92l0,534.873l-43.723,0l0,-526.129c0,-55.382 -9.454,-106.391 -28.362,-153.029c-18.909,-46.637 -44.118,-87.202 -75.627,-121.694c-31.509,-34.493 -68.108,-61.212 -109.796,-80.158c-41.688,-18.947 -85.806,-28.42 -132.352,-28.42c-46.531,0 -90.402,9.473 -131.612,28.42c-41.21,18.946 -77.57,45.18 -109.079,78.7c-31.509,33.521 -56.475,73.114 -74.897,118.78c-18.423,45.666 -27.634,95.218 -27.634,148.657l0,534.873l-43.723,0l0,-526.129c0,-55.382 -9.23,-106.391 -27.691,-153.029c-18.461,-46.637 -43.723,-87.202 -75.786,-121.694c-32.063,-34.493 -68.984,-61.212 -110.764,-80.158c-41.779,-18.947 -85.988,-28.42 -132.625,-28.42c-47.609,0 -92.303,9.473 -134.083,28.42c-41.779,18.946 -78.214,44.937 -109.306,77.972c-31.092,33.034 -55.625,72.385 -73.6,118.051c-17.975,45.665 -26.962,95.218 -26.962,148.656l-1.457,536.331l-43.723,0l0,-922.547l43.723,0l0,209.869c17.504,-41.78 38.898,-77.487 64.183,-107.121c25.285,-29.634 53.002,-53.681 83.153,-72.142c30.15,-18.461 62.247,-32.063 96.292,-40.808c34.044,-8.744 68.085,-13.117 102.122,-13.117c35.008,0 70.263,5.101 105.765,15.303c35.502,10.202 69.543,26.477 102.122,48.824c32.579,22.347 62.487,50.767 89.722,85.259c27.236,34.492 50.577,76.515 70.025,126.067c33.976,-94.247 82.511,-163.717 145.605,-208.411c63.094,-44.694 136.869,-67.042 221.323,-67.042c52.422,0 102.171,10.445 149.249,31.335c47.078,20.89 88.333,49.552 123.767,85.988c35.433,36.435 63.584,79.672 84.45,129.71c20.867,50.038 31.301,104.691 31.301,163.96Z" style="fill:#e7c798;fill-rule:nonzero;"/><path d="M5758.45,1195.33l0,17.489l-924.004,0c3.886,58.297 17.732,113.679 41.536,166.146c23.805,52.467 55.382,98.376 94.733,137.727c39.35,39.35 85.016,70.442 136.997,93.274c51.982,22.833 108.092,34.25 168.332,34.25c52.467,0 102.02,-9.231 148.657,-27.691c46.637,-18.461 90.36,-44.209 131.168,-77.243l29.148,29.148c-43.722,35.95 -92.06,63.641 -145.013,83.073c-52.953,19.432 -107.606,29.148 -163.96,29.148c-67.041,0 -129.953,-12.874 -188.736,-38.621c-58.782,-25.748 -110.035,-60.483 -153.757,-104.206c-43.723,-43.722 -78.458,-94.975 -104.206,-153.758c-25.748,-58.782 -38.622,-121.208 -38.622,-187.278c0,-67.041 12.65,-129.953 37.95,-188.736c25.3,-58.783 59.846,-110.035 103.636,-153.758c43.791,-43.722 95.12,-78.215 153.986,-103.477c58.866,-25.262 121.873,-37.893 189.021,-37.893c67.147,0 129.911,12.874 188.291,38.622c58.381,25.748 109.466,60.726 153.257,104.934c43.791,44.209 78.336,95.461 103.636,153.758c25.3,58.297 37.95,119.994 37.95,185.092Zm-43.722,-18.946c-3.887,-58.099 -17.71,-113.053 -41.469,-164.859c-23.758,-51.807 -55.283,-97.074 -94.572,-135.802c-39.29,-38.728 -84.884,-69.471 -136.782,-92.228c-51.897,-22.757 -107.427,-34.135 -166.589,-34.135c-60.134,0 -116.15,11.621 -168.048,34.864c-51.898,23.243 -97.734,54.471 -137.51,93.685c-39.775,39.214 -71.542,84.724 -95.301,136.531c-23.759,51.806 -37.096,105.788 -40.011,161.944l880.282,0Z" style="fill:#e7c798;fill-rule:nonzero;"/><path d="M6500.28,1583c-23.319,25.262 -54.167,47.852 -92.546,67.77c-38.379,19.918 -79.43,29.877 -123.152,29.877c-38.865,0 -76.272,-7.287 -112.221,-21.861c-35.95,-14.574 -67.771,-34.978 -95.461,-61.212c-27.691,-26.233 -50.039,-57.082 -67.042,-92.546c-17.003,-35.464 -25.505,-74.085 -25.505,-115.865l0,-613.574l-103.476,0l0,-32.063l103.476,0l0,-173.433l43.723,-42.265l0,215.698l376.014,0l0,32.063l-376.014,0l0,607.745c0,37.893 7.044,72.628 21.133,104.205c14.088,31.578 32.791,59.026 56.11,82.344c23.319,23.319 50.524,41.537 81.616,54.654c31.091,13.116 63.64,19.675 97.647,19.675c17.489,0 35.707,-2.429 54.653,-7.287c18.947,-4.858 36.679,-11.417 53.196,-19.675c16.517,-8.259 32.063,-17.732 46.637,-28.42c14.575,-10.688 26.234,-21.376 34.978,-32.063l26.234,26.233Z" style="fill:#e7c798;fill-rule:nonzero;"/></g><defs><linearGradient id="_Linear1" x1="0" y1="0" x2="1" y2="0" gradientUnits="userSpaceOnUse" gradientTransform="matrix(627.969,61.6754,-61.6754,627.969,1090.89,1025)"><stop offset="0" style="stop-color:#e7c798;stop-opacity:1"/><stop offset="0.5" style="stop-color:#d69c4a;stop-opacity:0.247059"/><stop offset="1" style="stop-color:#d08e30;stop-opacity:0"/></linearGradient></defs></svg>