<?xml version="1.0" encoding="UTF-8" standalone="no"?><!DOCTYPE svg PUBLIC "-//W3C//DTD SVG 1.1//EN" "http://www.w3.org/Graphics/SVG/1.1/DTD/svg11.dtd"><svg width="100%" height="100%" viewBox="0 0 1350 783" version="1.1" xmlns="http://www.w3.org/2000/svg" xmlns:xlink="http://www.w3.org/1999/xlink" xml:space="preserve" style="fill-rule:evenodd;clip-rule:evenodd;stroke-linejoin:round;stroke-miterlimit:1.41421;"><g><path id="a" d="M1225.77,578.06c50.682,-50.681 78.592,-118.078 78.591,-189.758c0,-147.964 -120.377,-268.342 -268.35,-268.349c-73.974,0.007 -141.076,30.111 -189.657,78.691c-48.596,48.596 -78.684,115.668 -78.69,189.657c0,71.681 27.91,139.078 78.59,189.757c50.687,50.687 118.076,78.59 189.757,78.59c71.683,0.002 139.072,-27.9 189.759,-78.588Z" style="fill:url(#_Linear1);fill-rule:nonzero;"/><g><path d="M1257.4,609.687c59.126,-59.126 91.686,-137.749 91.686,-221.383c0,-172.624 -140.436,-313.061 -313.069,-313.068c-172.648,-0.009 -313.061,140.468 -313.069,313.068c0,83.634 32.56,162.257 91.686,221.383c59.134,59.135 137.758,91.694 221.383,91.686c83.625,0.008 162.249,-32.551 221.383,-91.686l0,0Zm-489.732,-221.384c0.007,-73.991 30.096,-141.062 78.691,-189.657c48.58,-48.58 115.683,-78.685 189.657,-78.691c147.972,0.008 268.349,120.385 268.349,268.349c0,71.682 -27.911,139.079 -78.59,189.758c-50.689,50.689 -118.078,78.592 -189.758,78.59c-71.681,0 -139.07,-27.902 -189.757,-78.59c-50.682,-50.681 -78.592,-118.078 -78.592,-189.759Z" style="fill:#7f6e54;fill-rule:nonzero;"/><path d="M1031.14,782.667c12.353,0.002 22.36,-10.005 22.359,-22.358c0,-12.353 -10.006,-22.361 -22.359,-22.359c-92.591,0 -179.636,-36.056 -245.102,-101.522c-65.466,-65.466 -101.515,-152.505 -101.514,-245.094c0.015,-191.139 155.508,-346.601 346.617,-346.617c12.355,0 22.361,-10.005 22.359,-22.358c0,-12.352 -10.005,-22.36 -22.359,-22.359c-107.908,0 -205.725,43.88 -276.594,114.749c-70.848,70.848 -114.742,168.71 -114.742,276.587c-0.009,104.53 40.695,202.801 114.607,276.715c73.914,73.912 172.194,114.624 276.728,114.616l0,0Z" style="fill:#7f6e54;fill-rule:nonzero;"/><path d="M926.365,451.34c30.227,-30.228 79.308,-30.228 109.534,0c30.228,30.227 30.228,79.308 0,109.534c-30.226,30.227 -79.307,30.227 -109.534,0c-30.227,-30.226 -30.227,-79.307 0,-109.534Zm10.405,10.405c24.484,-24.484 64.24,-24.484 88.724,0c24.484,24.484 24.484,64.24 0,88.724c-24.484,24.483 -64.24,24.483 -88.724,0c-24.483,-24.484 -24.483,-64.24 0,-88.724Z" style="fill:#7f6e54;"/><path d="M891.377,243.764c15.114,-15.114 39.654,-15.114 54.768,0c15.113,15.114 15.113,39.654 0,54.767c-15.114,15.114 -39.654,15.114 -54.768,0c-15.113,-15.113 -15.113,-39.653 0,-54.767Zm9.037,9.036c10.126,-10.125 26.568,-10.125 36.694,0c10.126,10.126 10.126,26.568 0,36.695c-10.126,10.126 -26.568,10.126 -36.694,0c-10.126,-10.127 -10.126,-26.569 0,-36.695Z" style="fill:#7f6e54;"/><path d="M1124.39,282.749c22.104,-22.104 57.996,-22.104 80.1,0c22.104,22.104 22.104,57.995 0,80.099c-22.104,22.104 -57.996,22.104 -80.1,0c-22.103,-22.104 -22.103,-57.995 0,-80.099Zm10.413,10.413c16.357,-16.357 42.917,-16.357 59.274,0c16.356,16.356 16.356,42.916 0,59.273c-16.357,16.357 -42.917,16.357 -59.274,0c-16.356,-16.357 -16.356,-42.917 0,-59.273Z" style="fill:#7f6e54;"/><path d="M749.125,164.688c6.177,0 11.767,-2.501 15.812,-6.547c4.046,-4.045 6.548,-9.636 6.547,-15.812c-0.002,-12.354 -10.007,-22.359 -22.359,-22.359l-469.604,-0.003c-12.355,0 -22.36,10.005 -22.359,22.359c0.002,12.353 10.008,22.358 22.359,22.358l469.604,0.004Z" style="fill:#7f6e54;fill-rule:nonzero;"/><path d="M380.147,254.135c0.002,12.353 10.008,22.359 22.359,22.359l279.531,0c6.177,0 11.767,-2.502 15.813,-6.547c4.045,-4.045 6.547,-9.636 6.546,-15.812c0,-12.355 -10.005,-22.361 -22.359,-22.359l-279.529,-0.002c-12.353,0.002 -22.359,10.007 -22.361,22.361l0,0Z" style="fill:#7f6e54;fill-rule:nonzero;"/><path d="M637.317,410.667c6.178,0 11.768,-2.501 15.813,-6.547c4.046,-4.045 6.548,-9.636 6.546,-15.812c0.002,-12.354 -10.005,-22.36 -22.359,-22.359l-614.958,-0.003c-12.355,0 -22.36,10.005 -22.359,22.359c0.002,12.353 10.006,22.361 22.359,22.358l614.958,0.004Z" style="fill:#7f6e54;fill-rule:nonzero;"/><path d="M365.163,500.142c-0.001,12.354 10.006,22.361 22.359,22.359l212.443,-0.007c6.178,0 11.767,-2.502 15.813,-6.547c4.045,-4.045 6.547,-9.637 6.546,-15.812c0.001,-12.354 -10.006,-22.361 -22.359,-22.359l-212.441,0.006c-12.354,0.001 -22.359,10.007 -22.361,22.36Z" style="fill:#7f6e54;fill-rule:nonzero;"/><path d="M257.967,515.937c4.046,-4.045 6.548,-9.637 6.546,-15.813c0.01,-12.345 -10.005,-22.36 -22.359,-22.359l-122.988,-0.007c-12.355,0 -22.36,10.005 -22.359,22.359c-0.009,12.345 10.006,22.36 22.359,22.359l122.988,0.007c6.176,0.002 11.766,-2.499 15.813,-6.546l0,0Z" style="fill:#7f6e54;fill-rule:nonzero;"/><path d="M264.521,589.572c-12.353,0.002 -22.359,10.007 -22.359,22.358c0.002,12.354 10.006,22.361 22.359,22.359l469.604,0c6.177,0 11.767,-2.5 15.812,-6.546c4.046,-4.045 6.548,-9.636 6.547,-15.813c0.001,-12.353 -10.006,-22.359 -22.359,-22.358l-469.604,0l0,0Z" style="fill:#7f6e54;fill-rule:nonzero;"/></g></g><defs><linearGradient id="_Linear1" x1="0" y1="0" x2="1" y2="0" gradientUnits="userSpaceOnUse" gradientTransform="matrix(470.977,46.2566,-46.2566,470.977,793.84,350.135)"><stop offset="0" style="stop-color:#e7c798;stop-opacity:1"/><stop offset="0.5" style="stop-color:#d69c4a;stop-opacity:0.247059"/><stop offset="1" style="stop-color:#d08e30;stop-opacity:0"/></linearGradient></defs></svg>