<?xml version="1.0" encoding="UTF-8" standalone="no"?><!DOCTYPE svg PUBLIC "-//W3C//DTD SVG 1.1//EN" "http://www.w3.org/Graphics/SVG/1.1/DTD/svg11.dtd"><svg width="100%" height="100%" viewBox="0 0 6501 2152" version="1.1" xmlns="http://www.w3.org/2000/svg" xmlns:xlink="http://www.w3.org/1999/xlink" xml:space="preserve" style="fill-rule:evenodd;clip-rule:evenodd;stroke-linejoin:round;stroke-miterlimit:1.41421;"><path id="a" d="M1666.8,1328.9c67.575,-67.574 104.789,-157.437 104.787,-253.01c0,-197.286 -160.502,-357.789 -357.799,-357.799c-98.633,0.01 -188.102,40.148 -252.876,104.921c-64.795,64.795 -104.913,154.225 -104.921,252.876c0,95.575 37.214,185.438 104.787,253.01c67.583,67.583 157.435,104.787 253.01,104.787c95.577,0.002 185.429,-37.201 253.012,-104.785Z" style="fill:url(#_Linear1);fill-rule:nonzero;"/><g><path d="M1708.97,1371.07c78.835,-78.835 122.248,-183.666 122.248,-295.177c0,-230.166 -187.248,-417.415 -417.425,-417.425c-230.197,-0.011 -417.415,187.291 -417.425,417.425c0,111.511 43.413,216.342 122.248,295.177c78.845,78.846 183.677,122.259 295.177,122.248c111.5,0.011 216.332,-43.402 295.177,-122.248Zm-652.976,-295.179c0.01,-98.654 40.128,-188.083 104.921,-252.876c64.774,-64.773 154.245,-104.913 252.876,-104.921c197.297,0.01 357.799,160.513 357.799,357.799c0,95.576 -37.214,185.438 -104.787,253.01c-67.585,67.586 -157.437,104.79 -253.01,104.787c-95.575,0 -185.427,-37.203 -253.01,-104.787c-67.575,-67.574 -104.789,-157.437 -104.789,-253.012Z" style="fill:#3f414f;fill-rule:nonzero;"/><path d="M1407.29,1601.71c16.471,0.003 29.814,-13.34 29.812,-29.811c0,-16.47 -13.341,-29.814 -29.812,-29.812c-123.454,0 -239.514,-48.074 -326.803,-135.362c-87.288,-87.288 -135.353,-203.34 -135.351,-326.792c0.019,-254.853 207.343,-462.135 462.156,-462.156c16.473,0 29.814,-13.34 29.812,-29.811c0,-16.47 -13.341,-29.814 -29.812,-29.812c-143.878,0 -274.3,58.506 -368.793,152.999c-94.464,94.464 -152.989,224.946 -152.989,368.782c-0.012,139.373 54.26,270.402 152.81,368.953c98.551,98.55 229.591,152.833 368.97,152.822Z" style="fill:#3f414f;fill-rule:nonzero;"/><path d="M1267.59,1159.94c40.303,-40.303 105.744,-40.303 146.046,0c40.303,40.303 40.303,105.744 0,146.046c-40.302,40.303 -105.743,40.303 -146.046,0c-40.303,-40.302 -40.303,-105.743 0,-146.046Zm13.874,13.874c32.645,-32.645 85.653,-32.645 118.298,0c32.645,32.645 32.645,85.653 0,118.298c-32.645,32.645 -85.653,32.645 -118.298,0c-32.645,-32.645 -32.645,-85.653 0,-118.298Z" style="fill:#3f414f;"/><path d="M1220.94,883.172c20.151,-20.151 52.872,-20.151 73.023,0c20.151,20.152 20.151,52.872 0,73.023c-20.151,20.152 -52.872,20.152 -73.023,0c-20.151,-20.151 -20.151,-52.871 0,-73.023Zm12.049,12.049c13.501,-13.501 35.424,-13.501 48.925,0c13.502,13.501 13.502,35.424 0,48.926c-13.501,13.501 -35.424,13.501 -48.925,0c-13.502,-13.502 -13.502,-35.425 0,-48.926Z" style="fill:#3f414f;"/><path d="M1531.62,935.152c29.472,-29.471 77.327,-29.471 106.799,0c29.472,29.472 29.472,77.327 0,106.799c-29.472,29.472 -77.327,29.472 -106.799,0c-29.471,-29.472 -29.471,-77.327 0,-106.799Zm13.884,13.884c21.809,-21.809 57.222,-21.809 79.031,0c21.809,21.809 21.809,57.222 0,79.031c-21.809,21.809 -57.222,21.809 -79.031,0c-21.809,-21.809 -21.809,-57.222 0,-79.031Z" style="fill:#3f414f;"/><path d="M1011.27,777.738c8.236,0 15.689,-3.335 21.083,-8.729c5.394,-5.394 8.731,-12.849 8.729,-21.083c-0.002,-16.472 -13.343,-29.812 -29.812,-29.812l-626.138,-0.004c-16.474,0 -29.814,13.34 -29.812,29.812c0.002,16.471 13.343,29.811 29.812,29.811l626.138,0.005Z" style="fill:#3f414f;fill-rule:nonzero;"/><path d="M519.3,897c0.002,16.471 13.343,29.812 29.812,29.812l372.707,0c8.237,0 15.69,-3.335 21.084,-8.729c5.394,-5.393 8.73,-12.848 8.728,-21.083c0,-16.473 -13.34,-29.814 -29.812,-29.812l-372.705,-0.002c-16.471,0.002 -29.812,13.343 -29.814,29.814Z" style="fill:#3f414f;fill-rule:nonzero;"/><path d="M862.193,1105.71c8.237,0 15.69,-3.335 21.084,-8.729c5.394,-5.394 8.73,-12.849 8.728,-21.083c0.002,-16.472 -13.34,-29.814 -29.812,-29.812l-819.944,-0.004c-16.474,0 -29.814,13.34 -29.812,29.812c0.002,16.471 13.341,29.814 29.812,29.811l819.944,0.005Z" style="fill:#3f414f;fill-rule:nonzero;"/><path d="M519.321,1225.01c-0.002,16.472 13.341,29.814 29.812,29.812l283.257,-0.01c8.237,0 15.69,-3.335 21.084,-8.729c5.393,-5.393 8.73,-12.849 8.728,-21.083c0.002,-16.471 -13.341,-29.814 -29.812,-29.812l-283.255,0.008c-16.471,0.002 -29.812,13.343 -29.814,29.814Z" style="fill:#3f414f;fill-rule:nonzero;"/><path d="M376.393,1246.07c5.394,-5.394 8.73,-12.849 8.728,-21.084c0.013,-16.46 -13.34,-29.814 -29.812,-29.812l-163.984,-0.01c-16.473,0 -29.814,13.341 -29.812,29.812c-0.012,16.461 13.341,29.814 29.812,29.812l163.984,0.01c8.235,0.002 15.688,-3.332 21.084,-8.728Z" style="fill:#3f414f;fill-rule:nonzero;"/><path d="M385.132,1344.25c-16.471,0.002 -29.812,13.342 -29.812,29.811c0.002,16.472 13.341,29.814 29.812,29.812l626.138,0c8.236,0 15.689,-3.334 21.083,-8.728c5.394,-5.394 8.731,-12.849 8.729,-21.084c0.002,-16.471 -13.341,-29.813 -29.812,-29.811l-626.138,0Z" style="fill:#3f414f;fill-rule:nonzero;"/></g><text x="698.287px" y="1658.79px" style="font-family:'Adequate-ExtraLight', 'Adequate';font-weight:200;font-size:1457.42px;fill:#e7c798;">Comet</text><defs><linearGradient id="_Linear1" x1="0" y1="0" x2="1" y2="0" gradientUnits="userSpaceOnUse" gradientTransform="matrix(627.969,61.6754,-61.6754,627.969,1090.89,1025)"><stop offset="0" style="stop-color:#e7c798;stop-opacity:1"/><stop offset="0.5" style="stop-color:#d69c4a;stop-opacity:0.247059"/><stop offset="1" style="stop-color:#d08e30;stop-opacity:0"/></linearGradient></defs></svg>